<!DOCTYPE svg PUBLIC "-//W3C//DTD SVG 1.1//EN" "http://www.w3.org/Graphics/SVG/1.1/DTD/svg11.dtd">
<!-- Uploaded to: SVG Repo, www.svgrepo.com, Transformed by: SVG Repo Mixer Tools -->
<svg fill="#000000" height="800px" width="800px" version="1.1" id="Layer_1" xmlns="http://www.w3.org/2000/svg" xmlns:xlink="http://www.w3.org/1999/xlink" viewBox="0 0 511.947 511.947" xml:space="preserve" transform="matrix(-1, 0, 0, 1, 0, 0)">
<g id="SVGRepo_bgCarrier" stroke-width="0"/>
<g id="SVGRepo_tracerCarrier" stroke-linecap="round" stroke-linejoin="round"/>
<g id="SVGRepo_iconCarrier"> <g> <g> <path d="M407.553,248.453L161.9,3.12c-4.16-4.16-10.88-4.16-15.04,0l-42.453,42.347c-4.16,4.16-4.16,10.88,0,15.04l195.733,195.52 l-195.733,195.52c-4.16,4.16-4.16,10.88,0,15.04l42.347,42.24c4.16,4.16,10.88,4.16,15.04,0l245.653-245.333 C411.713,259.44,411.713,252.613,407.553,248.453z M154.327,486.32l-27.307-27.2L322.753,263.6c4.16-4.16,4.16-10.88,0-15.04 L127.127,53.04l27.307-27.2L384.94,256.027L154.327,486.32z"/> </g> </g> </g>
</svg>